<?xml version="1.0" encoding="UTF-8" standalone="no"?><!DOCTYPE svg PUBLIC "-//W3C//DTD SVG 1.1//EN" "http://www.w3.org/Graphics/SVG/1.1/DTD/svg11.dtd"><!-- Generated by graphviz version 2.40.1 (20161225.0304)
 --><!-- Title: G Pages: 1 --><svg xmlns="http://www.w3.org/2000/svg" xmlns:xlink="http://www.w3.org/1999/xlink" width="170pt" height="260pt" viewBox="0.00 0.00 170.00 260.00">
<g id="graph0" class="graph" transform="scale(1 1) rotate(0) translate(4 256)">
<title>G</title>
<polygon fill="#ffffff" stroke="transparent" points="-4,4 -4,-256 166,-256 166,4 -4,4"/>
<!-- x1 -->
<g id="node1" class="node">
<title>x1</title>
<ellipse fill="none" stroke="#000000" cx="117" cy="-234" rx="27" ry="18"/>
<text text-anchor="middle" x="117" y="-229.8" font-family="Times,serif" font-size="14.00" fill="#000000">x1</text>
</g>
<!-- x1&#45;&#45;x1 -->
<g id="edge1" class="edge">
<title>x1--x1</title>
<path fill="none" stroke="#000000" d="M136.895,-246.4321C149.688,-249.6753 162,-245.5313 162,-234 162,-222.4688 149.688,-218.3247 136.895,-221.5679"/>
</g>
<!-- x2 -->
<g id="node2" class="node">
<title>x2</title>
<ellipse fill="none" stroke="#000000" cx="117" cy="-162" rx="27" ry="18"/>
<text text-anchor="middle" x="117" y="-157.8" font-family="Times,serif" font-size="14.00" fill="#000000">x2</text>
</g>
<!-- x1&#45;&#45;x2 -->
<g id="edge2" class="edge">
<title>x1--x2</title>
<path fill="none" stroke="#000000" d="M100.3541,-219.4297C95.5459,-206.938 95.5486,-189.034 100.3624,-176.5486"/>
</g>
<!-- x1&#45;&#45;x2 -->
<g id="edge3" class="edge">
<title>x1--x2</title>
<path fill="none" stroke="#000000" d="M111.0843,-216.2022C109.9651,-205.0419 109.972,-190.7143 111.105,-179.593"/>
</g>
<!-- x1&#45;&#45;x2 -->
<g id="edge4" class="edge">
<title>x1--x2</title>
<path fill="none" stroke="#000000" d="M122.9157,-216.2022C124.0349,-205.0419 124.028,-190.7143 122.895,-179.593"/>
</g>
<!-- x1&#45;&#45;x2 -->
<g id="edge5" class="edge">
<title>x1--x2</title>
<path fill="none" stroke="#000000" d="M133.6459,-219.4297C138.4541,-206.938 138.4514,-189.034 133.6376,-176.5486"/>
</g>
<!-- x3 -->
<g id="node3" class="node">
<title>x3</title>
<ellipse fill="none" stroke="#000000" cx="27" cy="-162" rx="27" ry="18"/>
<text text-anchor="middle" x="27" y="-157.8" font-family="Times,serif" font-size="14.00" fill="#000000">x3</text>
</g>
<!-- x1&#45;&#45;x3 -->
<g id="edge6" class="edge">
<title>x1--x3</title>
<path fill="none" stroke="#000000" d="M99.6471,-220.1177C83.7101,-207.3681 60.2197,-188.5758 44.2996,-175.8397"/>
</g>
<!-- x2&#45;&#45;x2 -->
<g id="edge7" class="edge">
<title>x2--x2</title>
<path fill="none" stroke="#000000" d="M136.895,-174.4321C149.688,-177.6753 162,-173.5313 162,-162 162,-150.4688 149.688,-146.3247 136.895,-149.5679"/>
</g>
<!-- x4 -->
<g id="node4" class="node">
<title>x4</title>
<ellipse fill="none" stroke="#000000" cx="62" cy="-90" rx="27" ry="18"/>
<text text-anchor="middle" x="62" y="-85.8" font-family="Times,serif" font-size="14.00" fill="#000000">x4</text>
</g>
<!-- x2&#45;&#45;x4 -->
<g id="edge8" class="edge">
<title>x2--x4</title>
<path fill="none" stroke="#000000" d="M96.886,-149.4586C84.7083,-138.0162 71.2395,-120.9736 63.9146,-108.0641"/>
</g>
<!-- x2&#45;&#45;x4 -->
<g id="edge9" class="edge">
<title>x2--x4</title>
<path fill="none" stroke="#000000" d="M104.5196,-145.6621C95.5186,-133.8788 83.4207,-118.0416 74.431,-106.2733"/>
</g>
<!-- x2&#45;&#45;x4 -->
<g id="edge10" class="edge">
<title>x2--x4</title>
<path fill="none" stroke="#000000" d="M115.026,-143.8314C107.6305,-130.8338 94.0486,-113.6874 81.8296,-102.275"/>
</g>
<!-- x5 -->
<g id="node5" class="node">
<title>x5</title>
<ellipse fill="none" stroke="#000000" cx="62" cy="-18" rx="27" ry="18"/>
<text text-anchor="middle" x="62" y="-13.8" font-family="Times,serif" font-size="14.00" fill="#000000">x5</text>
</g>
<!-- x2&#45;&#45;x5 -->
<g id="edge11" class="edge">
<title>x2--x5</title>
<path fill="none" stroke="#000000" d="M115.2095,-143.8083C112.9112,-125.1875 107.9655,-95.7008 98,-72 92.2352,-58.2898 82.8441,-44.3613 75.0989,-34.0847"/>
</g>
<!-- x3&#45;&#45;x3 -->
<g id="edge12" class="edge">
<title>x3--x3</title>
<path fill="none" stroke="#000000" d="M46.895,-174.4321C59.688,-177.6753 72,-173.5313 72,-162 72,-150.4688 59.688,-146.3247 46.895,-149.5679"/>
</g>
<!-- x3&#45;&#45;x4 -->
<g id="edge13" class="edge">
<title>x3--x4</title>
<path fill="none" stroke="#000000" d="M23.9272,-143.8314C27.5181,-131.5003 35.6399,-115.435 44.1905,-104.0747"/>
</g>
<!-- x3&#45;&#45;x4 -->
<g id="edge14" class="edge">
<title>x3--x4</title>
<path fill="none" stroke="#000000" d="M35.4725,-144.5708C40.9754,-133.2506 48.1182,-118.5568 53.6055,-107.2687"/>
</g>
<!-- x3&#45;&#45;x4 -->
<g id="edge15" class="edge">
<title>x3--x4</title>
<path fill="none" stroke="#000000" d="M44.6644,-148.1177C53.3218,-136.6758 61.564,-120.3671 65.14,-107.9366"/>
</g>
<!-- x4&#45;&#45;x5 -->
<g id="edge16" class="edge">
<title>x4--x5</title>
<path fill="none" stroke="#000000" d="M56.0843,-72.2022C54.9651,-61.0419 54.972,-46.7143 56.105,-35.593"/>
</g>
<!-- x4&#45;&#45;x5 -->
<g id="edge17" class="edge">
<title>x4--x5</title>
<path fill="none" stroke="#000000" d="M67.9157,-72.2022C69.0349,-61.0419 69.028,-46.7143 67.895,-35.593"/>
</g>
</g>
</svg>