<?xml version="1.0" encoding="UTF-8" standalone="no"?><!DOCTYPE svg PUBLIC "-//W3C//DTD SVG 1.1//EN" "http://www.w3.org/Graphics/SVG/1.1/DTD/svg11.dtd"><!-- Generated by graphviz version 2.40.1 (20161225.0304)
 --><!-- Title: G Pages: 1 --><svg xmlns="http://www.w3.org/2000/svg" xmlns:xlink="http://www.w3.org/1999/xlink" width="170pt" height="260pt" viewBox="0.00 0.00 170.00 260.00">
<g id="graph0" class="graph" transform="scale(1 1) rotate(0) translate(4 256)">
<title>G</title>
<polygon fill="#ffffff" stroke="transparent" points="-4,4 -4,-256 166,-256 166,4 -4,4"/>
<!-- x1 -->
<g id="node1" class="node">
<title>x1</title>
<ellipse fill="none" stroke="#000000" cx="117" cy="-234" rx="27" ry="18"/>
<text text-anchor="middle" x="117" y="-229.8" font-family="Times,serif" font-size="14.00" fill="#000000">x1</text>
</g>
<!-- x1&#45;&gt;x1 -->
<g id="edge1" class="edge">
<title>x1-&gt;x1</title>
<path fill="none" stroke="#000000" d="M136.895,-246.4321C149.688,-249.6753 162,-245.5313 162,-234 162,-225.6218 155.5006,-221.1433 147.0395,-220.5644"/>
<polygon fill="#000000" stroke="#000000" points="146.5019,-217.1004 136.895,-221.5679 147.191,-224.0665 146.5019,-217.1004"/>
</g>
<!-- x2 -->
<g id="node2" class="node">
<title>x2</title>
<ellipse fill="none" stroke="#000000" cx="117" cy="-162" rx="27" ry="18"/>
<text text-anchor="middle" x="117" y="-157.8" font-family="Times,serif" font-size="14.00" fill="#000000">x2</text>
</g>
<!-- x1&#45;&gt;x2 -->
<g id="edge2" class="edge">
<title>x1-&gt;x2</title>
<path fill="none" stroke="#000000" d="M100.3541,-219.4297C96.7104,-209.9634 95.8295,-197.3888 97.7115,-186.4197"/>
<polygon fill="#000000" stroke="#000000" points="101.1489,-187.1142 100.3624,-176.5486 94.3884,-185.2986 101.1489,-187.1142"/>
</g>
<!-- x1&#45;&gt;x2 -->
<g id="edge3" class="edge">
<title>x1-&gt;x2</title>
<path fill="none" stroke="#000000" d="M111.0843,-216.2022C110.2798,-208.1807 110.0571,-198.5231 110.4162,-189.5957"/>
<polygon fill="#000000" stroke="#000000" points="113.9097,-189.8099 111.105,-179.593 106.9262,-189.3289 113.9097,-189.8099"/>
</g>
<!-- x1&#45;&gt;x2 -->
<g id="edge4" class="edge">
<title>x1-&gt;x2</title>
<path fill="none" stroke="#000000" d="M122.9157,-216.2022C123.7202,-208.1807 123.9429,-198.5231 123.5838,-189.5957"/>
<polygon fill="#000000" stroke="#000000" points="127.0738,-189.3289 122.895,-179.593 120.0903,-189.8099 127.0738,-189.3289"/>
</g>
<!-- x1&#45;&gt;x2 -->
<g id="edge5" class="edge">
<title>x1-&gt;x2</title>
<path fill="none" stroke="#000000" d="M133.6459,-219.4297C137.2896,-209.9634 138.1705,-197.3888 136.2885,-186.4197"/>
<polygon fill="#000000" stroke="#000000" points="139.6116,-185.2986 133.6376,-176.5486 132.8511,-187.1142 139.6116,-185.2986"/>
</g>
<!-- x3 -->
<g id="node3" class="node">
<title>x3</title>
<ellipse fill="none" stroke="#000000" cx="27" cy="-162" rx="27" ry="18"/>
<text text-anchor="middle" x="27" y="-157.8" font-family="Times,serif" font-size="14.00" fill="#000000">x3</text>
</g>
<!-- x1&#45;&gt;x3 -->
<g id="edge6" class="edge">
<title>x1-&gt;x3</title>
<path fill="none" stroke="#000000" d="M99.6471,-220.1177C86.2003,-209.3602 67.3761,-194.3009 52.259,-182.2072"/>
<polygon fill="#000000" stroke="#000000" points="54.2948,-179.3536 44.2996,-175.8397 49.9219,-184.8197 54.2948,-179.3536"/>
</g>
<!-- x2&#45;&gt;x2 -->
<g id="edge7" class="edge">
<title>x2-&gt;x2</title>
<path fill="none" stroke="#000000" d="M136.895,-174.4321C149.688,-177.6753 162,-173.5313 162,-162 162,-153.6218 155.5006,-149.1433 147.0395,-148.5644"/>
<polygon fill="#000000" stroke="#000000" points="146.5019,-145.1004 136.895,-149.5679 147.191,-152.0665 146.5019,-145.1004"/>
</g>
<!-- x4 -->
<g id="node4" class="node">
<title>x4</title>
<ellipse fill="none" stroke="#000000" cx="62" cy="-90" rx="27" ry="18"/>
<text text-anchor="middle" x="62" y="-85.8" font-family="Times,serif" font-size="14.00" fill="#000000">x4</text>
</g>
<!-- x2&#45;&gt;x4 -->
<g id="edge8" class="edge">
<title>x2-&gt;x4</title>
<path fill="none" stroke="#000000" d="M96.886,-149.4586C87.2771,-140.4298 76.8642,-127.9143 69.3002,-116.6937"/>
<polygon fill="#000000" stroke="#000000" points="72.1783,-114.6945 63.9146,-108.0641 66.2398,-118.4006 72.1783,-114.6945"/>
</g>
<!-- x2&#45;&gt;x4 -->
<g id="edge9" class="edge">
<title>x2-&gt;x4</title>
<path fill="none" stroke="#000000" d="M104.5196,-145.6621C97.4876,-136.4564 88.5653,-124.7764 80.7117,-114.4953"/>
<polygon fill="#000000" stroke="#000000" points="83.2828,-112.0953 74.431,-106.2733 77.72,-116.3446 83.2828,-112.0953"/>
</g>
<!-- x2&#45;&gt;x4 -->
<g id="edge10" class="edge">
<title>x2-&gt;x4</title>
<path fill="none" stroke="#000000" d="M115.026,-143.8314C109.075,-133.3723 99.1181,-120.2269 89.0889,-109.5445"/>
<polygon fill="#000000" stroke="#000000" points="91.3723,-106.8779 81.8296,-102.275 86.4191,-111.8242 91.3723,-106.8779"/>
</g>
<!-- x5 -->
<g id="node5" class="node">
<title>x5</title>
<ellipse fill="none" stroke="#000000" cx="62" cy="-18" rx="27" ry="18"/>
<text text-anchor="middle" x="62" y="-13.8" font-family="Times,serif" font-size="14.00" fill="#000000">x5</text>
</g>
<!-- x2&#45;&gt;x5 -->
<g id="edge11" class="edge">
<title>x2-&gt;x5</title>
<path fill="none" stroke="#000000" d="M115.2095,-143.8083C112.9112,-125.1875 107.9655,-95.7008 98,-72 93.6764,-61.7173 87.313,-51.3119 81.134,-42.4164"/>
<polygon fill="#000000" stroke="#000000" points="83.7998,-40.1301 75.0989,-34.0847 78.1307,-44.2365 83.7998,-40.1301"/>
</g>
<!-- x3&#45;&gt;x3 -->
<g id="edge12" class="edge">
<title>x3-&gt;x3</title>
<path fill="none" stroke="#000000" d="M46.895,-174.4321C59.688,-177.6753 72,-173.5313 72,-162 72,-153.6218 65.5006,-149.1433 57.0395,-148.5644"/>
<polygon fill="#000000" stroke="#000000" points="56.5019,-145.1004 46.895,-149.5679 57.191,-152.0665 56.5019,-145.1004"/>
</g>
<!-- x3&#45;&gt;x4 -->
<g id="edge13" class="edge">
<title>x3-&gt;x4</title>
<path fill="none" stroke="#000000" d="M23.9272,-143.8314C26.7045,-134.2941 32.1923,-122.5229 38.4925,-112.4225"/>
<polygon fill="#000000" stroke="#000000" points="41.4437,-114.3072 44.1905,-104.0747 35.6621,-110.3609 41.4437,-114.3072"/>
</g>
<!-- x3&#45;&gt;x4 -->
<g id="edge14" class="edge">
<title>x3-&gt;x4</title>
<path fill="none" stroke="#000000" d="M35.4725,-144.5708C39.5997,-136.0807 44.6493,-125.6929 49.2311,-116.2674"/>
<polygon fill="#000000" stroke="#000000" points="52.3813,-117.7926 53.6055,-107.2687 46.0857,-114.7322 52.3813,-117.7926"/>
</g>
<!-- x3&#45;&gt;x4 -->
<g id="edge15" class="edge">
<title>x3-&gt;x4</title>
<path fill="none" stroke="#000000" d="M44.6644,-148.1177C51.2251,-139.4468 57.5473,-127.9811 61.7811,-117.5263"/>
<polygon fill="#000000" stroke="#000000" points="65.1375,-118.5314 65.14,-107.9366 58.531,-116.2174 65.1375,-118.5314"/>
</g>
<!-- x4&#45;&gt;x5 -->
<g id="edge16" class="edge">
<title>x4-&gt;x5</title>
<path fill="none" stroke="#000000" d="M56.0843,-72.2022C55.2798,-64.1807 55.0571,-54.5231 55.4162,-45.5957"/>
<polygon fill="#000000" stroke="#000000" points="58.9097,-45.8099 56.105,-35.593 51.9262,-45.3289 58.9097,-45.8099"/>
</g>
<!-- x4&#45;&gt;x5 -->
<g id="edge17" class="edge">
<title>x4-&gt;x5</title>
<path fill="none" stroke="#000000" d="M67.9157,-72.2022C68.7202,-64.1807 68.9429,-54.5231 68.5838,-45.5957"/>
<polygon fill="#000000" stroke="#000000" points="72.0738,-45.3289 67.895,-35.593 65.0903,-45.8099 72.0738,-45.3289"/>
</g>
</g>
</svg>